<?xml version="1.0" encoding="UTF-8"?>
<svg id="Lag_1" xmlns="http://www.w3.org/2000/svg" version="1.1" viewBox="0 0 250.63 255.56">
  <!-- Generator: Adobe Illustrator 29.2.1, SVG Export Plug-In . SVG Version: 2.1.0 Build 116)  -->
  <defs>
    <style>
      .st0 {
        fill: none;
        stroke: #4c873c;
        stroke-miterlimit: 10;
      }

      .st1 {
        opacity: .8;
      }

      .st2 {
        fill: #4c873c;
      }
    </style>
  </defs>
  <g class="st1">
    <g>
      <circle class="st0" cx="125.31" cy="128.67" r="91.91"/>
      <g>
        <path class="st2" d="M194.42,92.67c.91-.04,1.87-.07,2.89-.1l2.12-1.71s-17.76-.03-21.47,0c0,0-1.71.13-2.51.48h0c-7.82,2.75-11.78,21.13-14.24,32.1-2.67,11.88-3.58,15.7-7.81,27.37-1.05,2.9-2.11,5.24-3.09,7.11-2.32,4.43-6.51,7.6-11.41,8.59-12.64,2.54-22.37-4.35-29.3-9.8-8.19-6.44-19.26-31.53-19.26-31.53l-.06-.09h4.31c8.68,0,15.78-7.69,15.78-17.09s-7.1-17.11-15.78-17.11h-21.9c-3.71-.03-21.47,0-21.47,0l2.12,1.71c1.07.02,2.08.06,3.03.1,2.26.48,3.97,2.65,3.97,5.24v52.56c0,2.95-2.21,5.34-4.93,5.34v1.71h22.21v-1.71c-2.72,0-4.93-2.39-4.93-5.34v-25.42h10.31l.06.09s7.41,21.42,11.47,30.34c4.06,8.92,12.11,18.56,23.96,20.59,11.85,2.03,20.53-.95,29.43-10.17,8.9-9.22,16.5-38.02,20.31-52.4,3.18-12.04,7.53-16.53,8.86-17.68.22-.18.54-.41.89-.55v55.21c0,2.95-2.21,5.34-4.93,5.34v1.71h22.2v-1.72c-2.72,0-4.93-2.39-4.93-5.34v-52.56c0-2.65,1.79-4.84,4.12-5.26ZM72.68,123.36v-30.76h11.13c7.81,0,14.2,6.92,14.2,15.38s-6.39,15.38-14.2,15.38h-11.13Z"/>
        <path class="st2" d="M128.98,155.84c-2.72,0-4.93-2.39-4.93-5.34v-54.38l18.56,61.44h4.7c.51-.69.98-1.42,1.38-2.2.98-1.86,2.04-4.2,3.09-7.11.2-.54.38-1.06.57-1.57l-16.85-55.8h-17.95v1.71c2.72,0,4.93,2.39,4.93,5.34v52.56c0,2.95-2.21,5.34-4.93,5.34v1.71h11.44v-1.71Z"/>
      </g>
      <g>
        <path class="st2" d="M138.24,217.63c-.53,0-1.1-1.36-.79.52,3.46.35,8.62,3.27,10.19,6.36,4.19,8.22-3.7,11.1-9.68,5.48-3.14-2.95-5.35-10.28-7.28-12.02-1.4-1.26-14.62,1.98-17.38,2.29l9.56,2.77c9.45,4.97,4.31,14.1-5.1,7.2-.92-.68-2.1-2.52-2.9-2.88-1.26-.56-3.17-.17-4.75-.5-2.01-.42-4.8-2.88-6-2.88-2.22,0-9.04,5.68-11.24,7.11-.45.29-1.17,1.29-1.63.47,4.36-5.72,9.65-10.04,16.02-13.36-1.71-4.22-.17-13.32,4.63-14.88,5.52-1.79,3.48,10.38.36,12.49l6.26-1.35c-.86-5.1,8.12-19.14,13.67-14.9.97.74.59,2.15,1.6,2.33.77-11.9,11.09-5.47,6.84,3.68l5.25-2.63c-1.02-2.92-3.03-7.08-.4-9.62,5.07-2.23,4.96,6.69,3.56,9.63.5.62,7.25-6.73,7.29-8.07-3.79-2.12-9.35-14.78-1.86-14.36,6.11.34,3.51,10.34,4.28,10.35,1.98-4.21,5.17-9.8-1.81-10.54-.56-2.71,1.88-3.56,4.17-3.64.56.59-1.15,5.74,1.05,5.25,1.67-4.8-3.59-9.3-3.7-13.42-.17-6.21,7.13-7.04,7.91.54.67,6.57-3.71,9.38-4.2,15.5,2.05-2.37,5.96-6.72,9.47-5.55.88.29,1.4.67,1.57,1.62.76,4.31-4.62,6.1-7.87,6.84-4.51,1.04-4.45-.69-6.33,4.96.85.9,2.64-3.79,4.93-3.12,1.18.35,1.2,3.86.35,4.48-1.08.78-2.7-1.06-4.59-.44-2.57.83-2.94,3.54-4.89,5.13l5.39-3.01c1.56-.63,3.42-.64,4.98-.01.69.28,1.19,1.2,1.69,1.4,1.34.51,3.02-.8,4.67,1.69,3.36,5.08-1.24,12.75-5.22,16.18-.2.17-4.16,2.16-1.82,1.87,2.15-.27,13.89-2.42,14.76-3.65-.2-2.26-1.56-4.3-1.82-6.64-.35-3.12.03-9.96,4.41-9.95,6.5.01,2.44,12.7-.26,15.52.84.69,12.77-7.28,13.71-8.64,1-1.43-2.02-4.98-2.77-6.75-2.17-5.13-2.63-17.86,5.64-14.58,6.76,2.68,2.58,11.35,1.13,15.91-.11.35-.96,1.91.15,1.21,1.34-2.29,6.92-8.18,7.12-10.49.05-.52-.71-4.1-.96-4.35-.76-.78-8.03-2.93-1.74-5.42,6.62-2.63,2.48,3.83,2.92,7.13.1.72.28,1.53,1.05.78.1-1.71,2-3.46,2.09-5.02.3-5.03-2.87-10.28-1.95-15.6.66-3.86,5.06-7.61,8.64-4.43,4.77,4.24-.14,18.59-6.18,20.68l-3.63,8.05c2.98-2.87,16.57-9.89,17.32-2.31.72,7.24-15.37,8.41-19.88,5.51l-5.33,7.3c3.48-.36,5.22-4.5,9.13-3.71,1.36,1.89.2,4.26-.71,6.12-2.62.94-4.08-2.51-6.33-2.19-4.43.63-6.87,4.58-10.49,6.87,2.86.08,6.04-2.45,8.7-2.86,4.11-.64,12.73,1.11,9.19,7.09-2.62,4.43-17.62,1.89-20.25-2.83-4.42,2.81-9.26,5.24-14.45,6.22l8.76,2.52c2.44.95,7.84,4.07,8.45,6.78.81,3.57-.45,6.01-4.32,5.95-6-.09-17.5-7.26-17.1-14.2l-12.6,1.06c3.65,2.75,11.92,7.84,11.32,13.16-.21,1.91-1.18,3.9-3.22,4.14-8.63.98-11.94-17.3-13.1-17.3-4.55,0-9.1,0-13.66,0ZM141.66,216.58h7.62c.23,0,1.93-1.21,2.1-1.57.65-1.33.05-3.1.25-4.49.25-1.76,3.51-.34,4.4.35.74.57,1.3,1.27,1.35,2.24-1.55,2.29-5.14,1.06-6.26,3.47h9.98c-1.53-4.63-.99-9.62.52-14.18-3.14,0-5.97.47-8.67-1.44l-3.35,2.83c1.02,3.11-.03,5.54-1.93,8.02l-6,4.77ZM135.36,210.27l-2.1-6.82c0,2.88-1.32,5.42-2.63,7.87l4.73-1.05ZM137.98,210.28c-2.21.84-5.75,1.08-7.74,1.97-1.59.71-4.32,4.15-5.92,5.37l12.61-1.04,1.05-6.3ZM118.55,215.52l-3.44.5-9.16,4.22c4.54.76,8.22-1.31,12.6-1.57v-3.15ZM102.79,222.88c-2.25-.25-4.5,1.99-5.77,3.67,1.59-.37,3.32-1.52,4.74-2.37.67-.4,1.33.1,1.04-1.3Z"/>
        <path class="st2" d="M77.58,34.84c3.29-1.21,7.62-1.17,10-3.96.59-.69-.5-3.93.83-5,3.98-.34,6.99,2.22,2.5,4.69-1.44.79-3.63.48-4.4,2.16l7.36-.77c1.8-3.95,4.23-8.67,8.45-10.46,1.76-.75,4.16-1.37,5.56.36,2.7,3.32-2.69,6.44-1.94,7.2,40.65-8.93,83.33,10.45,105.26,45.22,15.89,25.18,19.89,56.6,10.81,85.04-.95.12-.48-1.14-.39-1.7.56-3.58,2.1-7.57,2.77-11.42,6.7-38.38-8.8-76.87-40.25-99.49-24.82-17.85-57.8-24.06-87.13-14.5l7.63,1.48c4.75-2.2,13.56-.44,16.53,4.02,2.02,3.03.21,6.44-3.42,6.61-7.01.31-10.08-11.53-17.59-10.54,1.06,2.21,3.66,2.54,5.77,3.16-.02,2.71-2.67,4.18-5.25,3.67,1.29-8.24-4.07-8.16-10.5-6.82l5.95,2.71c2.8,1.41,4.39,6.14,1.68,8.33-4.63,3.74-11.96-3.87-12.89-8.42l-7.86,3.94c10.96,6.52-.24,11.05-6.12,3.47l-5.44,3.89c4.5-.54,13.35,5.56,7.33,9.43-4.33,2.79-10.72-1.41-14.35-3.88l-1.91,1.81,1.61.55c.64,9.35-3.68,2.68-4.95,2.9l-4.53,4.44.72.72c19.41-4.56,7.86,13.43-4.1,4.27l-6.07,8.92c2.97-2.65,14.56-1.68,13.04,3.31-1.29,4.26-12.56,2.42-15.14-.68-1.73,4.39-4.1,8.43-5.79,12.86-19.88,52.02,6.55,110.71,58.31,130.02l-.25,1.03C36.2,203.44,9.32,141.33,31.83,88.66c-1.38-4.37-8.72-11.02-3.12-14.74,4.94-.12,5.44,5.42,5.53,9.23,1.33-3.06,7.06-9.69,6.47-12.73-.29-1.49-2.09-3.47-2.78-5.13-1.38-3.31-3.32-11.5,1.69-12.51,6.39-1.29,6.94,10.05,4.87,14.09l7.1-9.48c.46-1.13-3.19-5.36-4.05-6.98-1.5-2.83-5.12-11.5.35-11.95,6.4-.53,7,10.31,6.05,14.75l6.6-7.35c.23-.51-1.76-2.75-2.13-3.68-1.61-3.99-1.39-17.27,4.28-17.71,6.87-.53,4.04,14.22,1.24,17.45-.11.35.5.38.78.26.82-.38,3.24-2.59,4.51-3.37,1.77-1.08,3.76-1.74,5.48-2.92.12-4.53.88-8.43,3.71-12.05,6.15-7.89,11.54.31,5.74,6.26-1.83,1.88-4.79,2.78-6.56,4.73ZM84.41,35.89c-.85-3.73-6.92.49-9.45.8l-4.21,2.35c5.84,2.63,8.33-2.2,13.65-3.15ZM58.67,49.02c4.6-.69,8.11-2.93,11.43-6.03-.65-.95-.81-3.22-2.22-2.37-3.35,2.01-6.66,5.44-9.2,8.4ZM53.42,56.38l4.71-3.94-1.3-1.31-3.41,5.25Z"/>
      </g>
    </g>
  </g>
</svg>